name analog
datacolumns 19
datarows 56
range 0.4235 0.451
endheader
time	ground_force_vx	ground_force_vy	ground_force_vz	ground_force_px	ground_force_py	ground_force_pz	l_ground_force_vx	l_ground_force_vy	l_ground_force_vz	l_ground_force_px	l_ground_force_py	l_ground_force_pz	ground_torque_x	ground_torque_y	ground_torque_z	l_ground_torque_x	l_ground_torque_y	l_ground_torque_z
0.4235	-0.0	-0.0	-0.0	-8.083248138427734	-2.1675469875335693	-355.8160095214844	6.29262638092041	3.3916640281677246	-420.5186462402344	-0.0	-0.0	-0.0	-0.0	-0.0	-0.0	129043.015625	-11912.5751953125	-5302.57373046875
0.424	-0.0	-0.0	-0.0	-7.706826210021973	-1.9327605962753296	-355.4364929199219	6.700645446777344	3.3150312900543213	-422.3575439453125	-0.0	-0.0	-0.0	-0.0	-0.0	-0.0	128903.2265625	-11877.9365234375	-5296.2802734375
0.4245	-0.0	-0.0	-0.0	-7.946444511413574	-1.7826080322265625	-353.34326171875	6.723773002624512	3.2739577293396	-421.5646667480469	-0.0	-0.0	-0.0	-0.0	-0.0	-0.0	128944.4765625	-11876.7412109375	-5272.5517578125
0.425	-0.0	-0.0	-0.0	-7.603589057922363	-1.1175426244735718	-354.1313171386719	6.754427433013916	2.9844071865081787	-420.6544494628906	-0.0	-0.0	-0.0	-0.0	-0.0	-0.0	128942.828125	-11941.466796875	-5229.10400390625
0.4255	-0.0	-0.0	-0.0	-8.00178337097168	-1.3919774293899536	-353.179931640625	6.830730438232422	3.3562240600585938	-421.9872131347656	-0.0	-0.0	-0.0	-0.0	-0.0	-0.0	129095.578125	-11816.44921875	-5208.791015625
0.426	-0.0	-0.0	-0.0	-8.275351524353027	-1.0766338109970093	-354.78326416015625	7.008152008056641	2.990100860595703	-420.7277221679688	-0.0	-0.0	-0.0	-0.0	-0.0	-0.0	129065.3671875	-11950.2421875	-5194.90625
0.4265	-0.0	-0.0	-0.0	-8.116127967834473	-0.9322852492332458	-354.3450622558594	7.029600143432617	3.145194292068481	-420.94091796875	-0.0	-0.0	-0.0	-0.0	-0.0	-0.0	128899.21875	-11809.9453125	-5146.38427734375
0.427	-0.0	-0.0	-0.0	-8.605154037475586	-0.946839451789856	-353.9153137207031	7.499406337738037	2.9687671661376958	-420.05572509765625	-0.0	-0.0	-0.0	-0.0	-0.0	-0.0	128797.0390625	-11699.1748046875	-5173.642578125
0.4275	-0.0	-0.0	-0.0	-8.330018043518066	-0.7204797267913818	-353.5036315917969	7.485842704772949	3.05048942565918	-419.8414306640625	-0.0	-0.0	-0.0	-0.0	-0.0	-0.0	128512.953125	-11659.8056640625	-5214.7724609375
0.428	-0.0	-0.0	-0.0	-8.304144859313965	-1.0031166076660156	-353.341552734375	7.253477096557617	3.2002968788146973	-419.33111572265625	-0.0	-0.0	-0.0	-0.0	-0.0	-0.0	128301.3125	-11717.6669921875	-5176.20166015625
0.4285	-0.0	-0.0	-0.0	-8.108146667480469	-0.211304485797882	-353.88629150390625	7.3967671394348145	3.1795806884765625	-418.28363037109375	-0.0	-0.0	-0.0	-0.0	-0.0	-0.0	127773.703125	-11763.712890625	-5064.123046875
0.429	-0.0	-0.0	-0.0	-8.459376335144043	-0.0156078338623046	-354.5926513671875	8.175747871398926	3.043524980545044	-416.5943908691406	-0.0	-0.0	-0.0	-0.0	-0.0	-0.0	127774.828125	-11675.5869140625	-5001.83447265625
0.4295	-0.0	-0.0	-0.0	-7.988318920135498	0.2594417035579681	-353.5331420898437	7.991293430328369	3.16499924659729	-417.7455139160156	-0.0	-0.0	-0.0	-0.0	-0.0	-0.0	127414.0546875	-11944.6298828125	-4944.95849609375
0.43	-0.0	-0.0	-0.0	-7.720736980438232	-0.0730339139699935	-353.2767944335937	8.20203685760498	3.4114677906036377	-415.112060546875	-0.0	-0.0	-0.0	-0.0	-0.0	-0.0	127376.609375	-11657.1904296875	-4812.4658203125
0.4305	-0.0	-0.0	-0.0	-7.44498872756958	-0.3565216064453125	-352.0880126953125	8.338813781738281	3.411649465560913	-416.188720703125	-0.0	-0.0	-0.0	-0.0	-0.0	-0.0	127333.625	-11649.353515625	-4858.10546875
0.431	-0.0	-0.0	-0.0	-7.2415242195129395	-0.4373359084129333	-351.7342834472656	8.766992568969727	3.2602484226226807	-414.7315979003906	-0.0	-0.0	-0.0	-0.0	-0.0	-0.0	127107.2578125	-11636.1298828125	-4828.17529296875
0.4315	-0.0	-0.0	-0.0	-6.512367248535156	-0.4456520080566406	-351.02752685546875	8.572269439697266	3.315938949584961	-415.42913818359375	-0.0	-0.0	-0.0	-0.0	-0.0	-0.0	126697.09375	-11510.0830078125	-4693.51025390625
0.432	-0.0	-0.0	-0.0	-6.221495628356934	-0.3565216064453125	-351.0947265625	8.564545631408691	3.2836508750915527	-414.3462219238281	-0.0	-0.0	-0.0	-0.0	-0.0	-0.0	126775.8515625	-11663.8330078125	-4720.52197265625
0.4325	-0.0	-0.0	-0.0	-5.70947265625	-0.4685720205307007	-350.2293701171875	8.209761619567871	3.21175217628479	-414.3789978027344	-0.0	-0.0	-0.0	-0.0	-0.0	-0.0	126311.890625	-11540.60546875	-4677.5791015625
0.433	-0.0	-0.0	-0.0	-5.392841815948486	-0.8160072565078735	-350.1605224609375	8.16954231262207	3.364338159561157	-413.04638671875	-0.0	-0.0	-0.0	-0.0	-0.0	-0.0	126248.65625	-11786.5458984375	-4742.306640625
0.4335	-0.0	-0.0	-0.0	-5.067131042480469	-0.6550889611244202	-350.2663269042969	8.661744117736816	3.267902374267578	-412.5063171386719	-0.0	-0.0	-0.0	-0.0	-0.0	-0.0	126307.546875	-11557.9423828125	-4669.25634765625
0.434	-0.0	-0.0	-0.0	-4.795343399047852	-0.6549413800239563	-349.9655456542969	8.533020973205566	3.131241798400879	-411.8408508300781	-0.0	-0.0	-0.0	-0.0	-0.0	-0.0	126050.6015625	-11549.708984375	-4574.82666015625
0.4345	-0.0	-0.0	-0.0	-4.795591354370117	-0.8330535888671875	-350.5853271484375	8.693656921386719	3.148101091384888	-411.6497802734375	-0.0	-0.0	-0.0	-0.0	-0.0	-0.0	126096.625	-11651.6201171875	-4577.53125
0.435	-0.0	-0.0	-0.0	-4.629669189453125	-0.544051468372345	-350.5494689941406	8.83104133605957	2.963075637817383	-412.3820495605469	-0.0	-0.0	-0.0	-0.0	-0.0	-0.0	126083.75	-11602.51171875	-4631.05712890625
0.4355	-0.0	-0.0	-0.0	-4.350211143493652	-0.4738284945487976	-351.0981140136719	8.804825782775879	2.8660945892333984	-410.2186584472656	-0.0	-0.0	-0.0	-0.0	-0.0	-0.0	125542.6171875	-11508.7578125	-4650.26416015625
0.436	-0.0	-0.0	-0.0	-4.76625919342041	-0.6143958568572998	-351.3009033203125	8.418642044067383	2.7777111530303955	-409.3977661132813	-0.0	-0.0	-0.0	-0.0	-0.0	-0.0	125467.828125	-11265.6328125	-4555.62890625
0.4365	-0.0	-0.0	-0.0	-4.173603057861328	-0.6431863903999329	-352.0058288574219	8.742513656616211	2.914615631103516	-408.4719848632813	-0.0	-0.0	-0.0	-0.0	-0.0	-0.0	125093.109375	-11306.091796875	-4466.29150390625
0.437	-0.0	-0.0	-0.0	-4.034010410308838	-0.6336727142333984	-352.08172607421875	8.782367706298828	3.325690269470215	-409.13385009765625	-0.0	-0.0	-0.0	-0.0	-0.0	-0.0	125054.7265625	-11181.3525390625	-4439.46337890625
0.4375	-0.0	-0.0	-0.0	-4.073949813842773	-0.861587643623352	-352.748291015625	8.999509811401367	2.701056241989136	-408.35107421875	-0.0	-0.0	-0.0	-0.0	-0.0	-0.0	124678.96875	-11271.8564453125	-4369.9091796875
0.438	-0.0	-0.0	-0.0	-3.6280455589294434	-0.4256434440612793	-353.88629150390625	9.295896530151367	2.9239425659179688	-408.1950988769531	-0.0	-0.0	-0.0	-0.0	-0.0	-0.0	124541.4375	-11339.7578125	-4323.595703125
0.4385	-0.0	-0.0	-0.0	-3.3210134506225586	-0.5843992233276367	-353.96636962890625	9.324098587036133	3.130707263946533	-407.3854370117188	-0.0	-0.0	-0.0	-0.0	-0.0	-0.0	124294.8828125	-11293.83203125	-4191.6181640625
0.439	-0.0	-0.0	-0.0	-3.360781192779541	-0.5450311899185181	-353.6488037109375	9.412954330444336	3.051882743835449	-406.9929504394531	-0.0	-0.0	-0.0	-0.0	-0.0	-0.0	124174.078125	-11133.21875	-4250.9267578125
0.4395	-0.0	-0.0	-0.0	-3.3796184062957764	-0.0891304016113281	-353.0238952636719	9.511521339416504	2.777287483215332	-406.257080078125	-0.0	-0.0	-0.0	-0.0	-0.0	-0.0	123785.484375	-11057.0986328125	-4138.986328125
0.44	-0.0	-0.0	-0.0	-3.400506019592285	-0.2962106764316559	-352.6293640136719	9.363917350769045	2.993122100830078	-404.8995056152344	-0.0	-0.0	-0.0	-0.0	-0.0	-0.0	123647.8828125	-11078.4521484375	-4267.49853515625
0.4405	-0.0	-0.0	-0.0	-3.19353985786438	-0.3957782387733459	-351.96484375	9.16659927368164	2.5513947010040283	-405.2864990234375	-0.0	-0.0	-0.0	-0.0	-0.0	-0.0	123606.6640625	-11024.2705078125	-4218.2900390625
0.441	-0.0	-0.0	-0.0	-2.93688440322876	-0.452707976102829	-353.1654357910156	9.047507286071776	2.571362018585205	-405.015869140625	-0.0	-0.0	-0.0	-0.0	-0.0	-0.0	123568.6796875	-10682.248046875	-4307.3447265625
0.4415	-0.0	-0.0	-0.0	-2.565360307693481	-0.5347824096679688	-352.8697814941406	8.99903392791748	2.2369370460510254	-404.203369140625	-0.0	-0.0	-0.0	-0.0	-0.0	-0.0	123285.765625	-10620.259765625	-4340.5224609375
0.442	-0.0	-0.0	-0.0	-2.3805718421936035	-0.2954779863357544	-352.93804931640625	9.168245315551758	2.275765180587769	-402.8395385742188	-0.0	-0.0	-0.0	-0.0	-0.0	-0.0	123253.484375	-10857.42578125	-4459.0693359375
0.4425	-0.0	-0.0	-0.0	-2.3922688961029053	-0.763150691986084	-353.88629150390625	9.098076820373535	2.04956603050232	-403.2701416015625	-0.0	-0.0	-0.0	-0.0	-0.0	-0.0	122804.21875	-10849.294921875	-4433.02099609375
0.443	-0.0	-0.0	-0.0	-2.269247770309448	-0.4119614958763122	-355.1238708496094	8.906848907470703	2.200777292251587	-403.1163940429688	-0.0	-0.0	-0.0	-0.0	-0.0	-0.0	123015.046875	-10651.0087890625	-4363.24169921875
0.4435	-0.0	-0.0	-0.0	-2.2805497646331787	-0.2900978326797485	-353.4881286621094	8.92078971862793	1.716940999031067	-402.963134765625	-0.0	-0.0	-0.0	-0.0	-0.0	-0.0	122925.5	-10268.5244140625	-4360.99658203125
0.444	-0.0	-0.0	-0.0	-2.5597329139709477	-0.2947385311126709	-355.5438537597656	9.098273277282717	1.8159884214401243	-402.3079528808594	-0.0	-0.0	-0.0	-0.0	-0.0	-0.0	122515.4921875	-10338.201171875	-4360.92822265625
0.4445	-0.0	-0.0	-0.0	-2.6763153076171875	-0.5811737775802612	-357.1108703613281	8.72158145904541	1.7942354679107666	-402.1795654296875	-0.0	-0.0	-0.0	-0.0	-0.0	-0.0	122392.71875	-10359.1416015625	-4390.9453125
0.445	-0.0	-0.0	-0.0	-2.691591739654541	-0.4186682999134063	-355.7126770019531	9.10947036743164	1.5511435270309448	-400.9352416992188	-0.0	-0.0	-0.0	-0.0	-0.0	-0.0	122331.1015625	-10123.591796875	-4366.72119140625
0.4455	-0.0	-0.0	-0.0	-2.2540171146392822	-0.4575185775756836	-356.25250244140625	9.048500061035156	1.0486879348754885	-401.52435302734375	-0.0	-0.0	-0.0	-0.0	-0.0	-0.0	122272.8125	-10068.5927734375	-4407.7890625
0.446	-0.0	-0.0	-0.0	-2.256903886795044	-0.4456520080566406	-356.7591857910156	8.666281700134277	1.0485899448394775	-401.34613037109375	-0.0	-0.0	-0.0	-0.0	-0.0	-0.0	122115.4921875	-9806.302734375	-4498.71875
0.4465	-0.0	-0.0	-0.0	-2.6884145736694336	-0.2794796824455261	-356.3106384277344	8.354562759399414	1.2094311714172363	-400.0376892089844	-0.0	-0.0	-0.0	-0.0	-0.0	-0.0	121849.9765625	-9973.0947265625	-4537.61572265625
0.447	-0.0	-0.0	-0.0	-2.4471664428710938	-0.2936053276062011	-355.09820556640625	8.377375602722168	0.5146105289459229	-400.6892700195313	-0.0	-0.0	-0.0	-0.0	-0.0	-0.0	121630.53125	-9847.8193359375	-4577.671875
0.4475	-0.0	-0.0	-0.0	-2.3702504634857178	-0.508716344833374	-354.5382385253906	7.918631076812744	0.4299741089344024	-400.3253479003906	-0.0	-0.0	-0.0	-0.0	-0.0	-0.0	121307.734375	-9592.3466796875	-4608.97119140625
0.448	-0.0	-0.0	-0.0	-2.930516242980957	-0.4207347631454468	-354.0420227050781	8.01060962677002	0.2532061636447906	-400.081298828125	-0.0	-0.0	-0.0	-0.0	-0.0	-0.0	121412.0078125	-9319.4912109375	-4639.64453125
0.4485	-0.0	-0.0	-0.0	-3.0588784217834477	-0.7256212830543518	-353.78662109375	7.691377639770508	0.2649650573730469	-397.2978210449219	-0.0	-0.0	-0.0	-0.0	-0.0	-0.0	121125.6171875	-9180.724609375	-4736.7197265625
0.449	-0.0	-0.0	-0.0	-2.791062116622925	-1.1078906059265137	-352.92742919921875	7.780272006988525	0.0501605346798896	-399.3260498046875	-0.0	-0.0	-0.0	-0.0	-0.0	-0.0	120659.015625	-9049.541015625	-4685.40234375
0.4495	-0.0	-0.0	-0.0	-3.543102502822876	-0.7258899211883545	-352.8267822265625	7.65352201461792	0.0121436491608619	-400.0252075195313	-0.0	-0.0	-0.0	-0.0	-0.0	-0.0	120850.5390625	-8732.568359375	-4757.67138671875
0.45	-0.0	-0.0	-0.0	-3.5806310176849365	-1.0063267946243286	-353.9859619140625	7.794252872467041	-0.1386036276817321	-398.3820190429688	-0.0	-0.0	-0.0	-0.0	-0.0	-0.0	120395.4765625	-8701.0791015625	-4744.85009765625
0.4505	-0.0	-0.0	-0.0	-3.745662450790405	-1.3880559206008911	-354.6962280273437	7.94582462310791	-0.6058874726295471	-398.5810241699219	-0.0	-0.0	-0.0	-0.0	-0.0	-0.0	120515.0703125	-8617.443359375	-4727.99365234375
0.451	-0.0	-0.0	-0.0	-3.936800479888916	-1.1075224876403809	-353.3303527832031	8.047171592712402	-0.2395671010017395	-396.63623046875	-0.0	-0.0	-0.0	-0.0	-0.0	-0.0	120229.8046875	-8329.6630859375	-4655.79296875
